<svg width="63" height="43" viewBox="0 0 63 43" fill="none" xmlns="http://www.w3.org/2000/svg">
<rect x="0.810146" y="0.810146" width="61.3797" height="41.3797" rx="5.67102" fill="#006FCF" stroke="#F3F3F3" stroke-width="1.62029"/>
<path fill-rule="evenodd" clip-rule="evenodd" d="M12.886 31.0609V22.2088H23.0134L24.1 23.5197L25.2225 22.2088H61.9825V30.4504C61.9825 30.4504 61.0212 31.0521 59.9094 31.0609H39.5546L38.3295 29.6655V31.0609H34.3151V28.6789C34.3151 28.6789 33.7667 29.0114 32.5811 29.0114H31.2147V31.0609H25.1366L24.0516 29.7219L22.9499 31.0609H12.886ZM1.08618 15.5369L3.36478 10.6094H7.30537L8.5985 13.3696V10.6094H13.497L14.2668 12.6044L15.0131 10.6094H37.0024V11.6123C37.0024 11.6123 38.1583 10.6094 40.0581 10.6094L47.1928 10.6325L48.4636 13.3566V10.6094H52.5629L53.6912 12.1741V10.6094H57.8281V19.4615H53.6912L52.61 17.8917V19.4615H46.5871L45.9814 18.0661H44.3623L43.7665 19.4615H39.682C38.0473 19.4615 37.0024 18.479 37.0024 18.479V19.4615H30.844L29.6217 18.0661V19.4615H6.72159L6.11633 18.0661H4.50235L3.90137 19.4615H1.08618V15.5369ZM1.09813 18.3288L4.17145 11.7006H6.50142L9.57181 18.3288H7.52685L6.96272 17.0016H3.66609L3.09902 18.3288H1.09813ZM6.31337 15.5625L5.30851 13.2431L4.30072 15.5625H6.31337ZM9.78307 18.3278V11.6996L12.6264 11.7094L14.2803 15.9829L15.8945 11.6996H18.7151V18.3278H16.9287V13.4439L15.0351 18.3278H13.4684L11.5695 13.4439V18.3278H9.78307ZM19.9376 18.3278V11.6996H25.7669V13.1823H21.7428V14.316H25.6729V15.7114H21.7428V16.8888H25.7669V18.3278H19.9376ZM26.8013 18.3288V11.7006H30.7766C32.0938 11.7006 33.2741 12.4562 33.2741 13.851C33.2741 15.0433 32.279 15.8114 31.3143 15.8869L33.6648 18.3288H31.4818L29.3399 15.9741H28.5877V18.3288H26.8013ZM30.6297 13.1832H28.5877V14.5786H30.6562C31.0142 14.5786 31.4759 14.3213 31.4759 13.8809C31.4759 13.5387 31.1196 13.1832 30.6297 13.1832ZM35.8272 18.3278H34.0032V11.6996H35.8272V18.3278ZM40.1524 18.3278H39.7587C37.8537 18.3278 36.6971 16.9357 36.6971 15.041C36.6971 13.0995 37.8407 11.6996 40.2464 11.6996H42.2208V13.2695H40.1742C39.1976 13.2695 38.507 13.9764 38.507 15.0573C38.507 16.341 39.2967 16.8801 40.4344 16.8801H40.9045L40.1524 18.3278ZM40.9662 18.3288L44.0395 11.7006H46.3695L49.4399 18.3288H47.3949L46.8308 17.0016H43.5341L42.9671 18.3288H40.9662ZM46.1815 15.5625L45.1767 13.2431L44.1689 15.5625H46.1815ZM49.6483 18.3278V11.6996H51.9195L54.8195 15.8641V11.6996H56.6059V18.3278H54.4082L51.4348 14.0544V18.3278H49.6483ZM14.1083 29.927V23.2988H19.9377V24.7814H15.9135V25.9152H19.8436V27.3106H15.9135V28.488H19.9377V29.927H14.1083ZM42.6719 29.927V23.2988H48.5012V24.7814H44.4771V25.9152H48.3884V27.3106H44.4771V28.488H48.5012V29.927H42.6719ZM20.1638 29.927L23.0021 26.6538L20.0962 23.2988H22.3468L24.0774 25.3728L25.8139 23.2988H27.9764L25.1087 26.6129L27.9522 29.927H25.7019L24.0216 27.8857L22.3821 29.927H20.1638ZM28.1644 29.9282V23.3H32.1104C33.7295 23.3 34.6754 24.268 34.6754 25.5294C34.6754 27.0521 33.4694 27.8351 31.8783 27.8351H29.9979V29.9282H28.1644ZM31.9782 24.799H29.9978V26.3252H31.9723C32.494 26.3252 32.8596 26.0045 32.8596 25.5621C32.8596 25.0912 32.4922 24.799 31.9782 24.799ZM35.451 29.927V23.2988H39.4264C40.7436 23.2988 41.9238 24.0544 41.9238 25.4492C41.9238 26.6415 40.9287 27.4095 39.964 27.485L42.3146 29.927H40.1315L37.9896 27.5723H37.2374V29.927H35.451ZM39.2796 24.7814H37.2375V26.1768H39.306C39.664 26.1768 40.1257 25.9195 40.1257 25.4791C40.1257 25.1369 39.7694 24.7814 39.2796 24.7814ZM49.3289 29.927V28.488H52.904C53.433 28.488 53.6621 28.2228 53.6621 27.932C53.6621 27.6534 53.4338 27.3717 52.904 27.3717H51.2885C49.8841 27.3717 49.102 26.578 49.102 25.3865C49.102 24.3237 49.8183 23.2988 51.9051 23.2988H55.3839L54.6317 24.7902H51.623C51.0479 24.7902 50.8708 25.0701 50.8708 25.3374C50.8708 25.6122 51.0896 25.9152 51.529 25.9152H53.2214C54.7868 25.9152 55.4661 26.7389 55.4661 27.8175C55.4661 28.9772 54.7092 29.927 53.1361 29.927H49.3289ZM55.6233 29.927V28.488H59.1985C59.7275 28.488 59.9565 28.2228 59.9565 27.932C59.9565 27.6534 59.7282 27.3717 59.1985 27.3717H57.5829C56.1786 27.3717 55.3965 26.578 55.3965 25.3865C55.3965 24.3237 56.1127 23.2988 58.1995 23.2988H61.6783L60.9261 24.7902H57.9175C57.3423 24.7902 57.1653 25.0701 57.1653 25.3374C57.1653 25.6122 57.3841 25.9152 57.8234 25.9152H59.5158C61.0813 25.9152 61.7606 26.7389 61.7606 27.8175C61.7606 28.9772 61.0036 29.927 59.4306 29.927H55.6233Z" fill="white"/>
</svg>
