<svg width="300" height="21" viewBox="0 0 300 21" fill="none" xmlns="http://www.w3.org/2000/svg">
<path d="M1.01136 15V3.36364H5.67045C6.52652 3.36364 7.24053 3.49053 7.8125 3.74432C8.38447 3.99811 8.81439 4.35038 9.10227 4.80114C9.39015 5.24811 9.53409 5.76326 9.53409 6.34659C9.53409 6.80114 9.44318 7.20076 9.26136 7.54545C9.07955 7.88636 8.82955 8.16667 8.51136 8.38636C8.19697 8.60227 7.83712 8.75568 7.43182 8.84659V8.96023C7.875 8.97917 8.28977 9.10417 8.67614 9.33523C9.06629 9.56629 9.38258 9.89015 9.625 10.3068C9.86742 10.7197 9.98864 11.2121 9.98864 11.7841C9.98864 12.4015 9.83523 12.9527 9.52841 13.4375C9.22538 13.9186 8.77652 14.2992 8.18182 14.5795C7.58712 14.8598 6.85417 15 5.98295 15H1.01136ZM3.47159 12.9886H5.47727C6.16288 12.9886 6.66288 12.858 6.97727 12.5966C7.29167 12.3314 7.44886 11.9792 7.44886 11.5398C7.44886 11.2178 7.37121 10.9337 7.21591 10.6875C7.06061 10.4413 6.83902 10.2481 6.55114 10.108C6.26705 9.9678 5.92803 9.89773 5.53409 9.89773H3.47159V12.9886ZM3.47159 8.23295H5.29545C5.63258 8.23295 5.93182 8.17424 6.19318 8.05682C6.45833 7.93561 6.66667 7.76515 6.81818 7.54545C6.97348 7.32576 7.05114 7.0625 7.05114 6.75568C7.05114 6.33523 6.90152 5.99621 6.60227 5.73864C6.30682 5.48106 5.88636 5.35227 5.34091 5.35227H3.47159V8.23295ZM22.2827 9.18182C22.2827 10.4508 22.0421 11.5303 21.5611 12.4205C21.0838 13.3106 20.4323 13.9905 19.6065 14.4602C18.7846 14.9261 17.8603 15.1591 16.8338 15.1591C15.7997 15.1591 14.8717 14.9242 14.0497 14.4545C13.2277 13.9848 12.5781 13.3049 12.1009 12.4148C11.6236 11.5246 11.3849 10.447 11.3849 9.18182C11.3849 7.91288 11.6236 6.83333 12.1009 5.94318C12.5781 5.05303 13.2277 4.375 14.0497 3.90909C14.8717 3.43939 15.7997 3.20455 16.8338 3.20455C17.8603 3.20455 18.7846 3.43939 19.6065 3.90909C20.4323 4.375 21.0838 5.05303 21.5611 5.94318C22.0421 6.83333 22.2827 7.91288 22.2827 9.18182ZM19.7884 9.18182C19.7884 8.35985 19.6652 7.66667 19.419 7.10227C19.1766 6.53788 18.8338 6.10985 18.3906 5.81818C17.9474 5.52652 17.4285 5.38068 16.8338 5.38068C16.2391 5.38068 15.7202 5.52652 15.277 5.81818C14.8338 6.10985 14.4891 6.53788 14.2429 7.10227C14.0005 7.66667 13.8793 8.35985 13.8793 9.18182C13.8793 10.0038 14.0005 10.697 14.2429 11.2614C14.4891 11.8258 14.8338 12.2538 15.277 12.5455C15.7202 12.8371 16.2391 12.983 16.8338 12.983C17.4285 12.983 17.9474 12.8371 18.3906 12.5455C18.8338 12.2538 19.1766 11.8258 19.419 11.2614C19.6652 10.697 19.7884 10.0038 19.7884 9.18182ZM23.1307 5.39205V3.36364H32.6875V5.39205H29.125V15H26.6932V5.39205H23.1307ZM34.2614 15V3.36364H38.8523C39.7348 3.36364 40.4867 3.5322 41.108 3.86932C41.7292 4.20265 42.2027 4.66667 42.5284 5.26136C42.858 5.85227 43.0227 6.53409 43.0227 7.30682C43.0227 8.07955 42.8561 8.76136 42.5227 9.35227C42.1894 9.94318 41.7064 10.4034 41.0739 10.733C40.4451 11.0625 39.6837 11.2273 38.7898 11.2273H35.8636V9.25568H38.392C38.8655 9.25568 39.2557 9.17424 39.5625 9.01136C39.8731 8.8447 40.1042 8.61553 40.2557 8.32386C40.411 8.02841 40.4886 7.68939 40.4886 7.30682C40.4886 6.92045 40.411 6.58333 40.2557 6.29545C40.1042 6.00379 39.8731 5.77841 39.5625 5.61932C39.2519 5.45644 38.858 5.375 38.3807 5.375H36.7216V15H34.2614ZM45.2827 15H42.6463L46.6634 3.36364H49.8338L53.8452 15H51.2088L48.294 6.02273H48.2031L45.2827 15ZM45.1179 10.4261H51.3452V12.3466H45.1179V10.4261ZM53.3764 3.36364H56.1321L58.7855 8.375H58.8991L61.5526 3.36364H64.3082L60.0639 10.8864V15H57.6207V10.8864L53.3764 3.36364Z" fill="white"/>
<path fill-rule="evenodd" clip-rule="evenodd" d="M74.2028 13.8617L74.1995 13.8662L74.1963 13.8707C74.0183 14.1227 73.6196 14.1968 73.3077 13.9765C73.0581 13.8003 72.9831 13.4074 73.1957 13.097C73.5128 12.6927 73.7431 12.2201 73.8944 11.7581C74.0519 11.2771 74.1251 10.7305 74.1223 10.1945C74.1194 9.65839 74.0404 9.11264 73.8778 8.63335C73.7216 8.17297 73.4862 7.70282 73.1648 7.30196C72.9489 6.99378 73.0198 6.60018 73.2675 6.42124C73.577 6.1977 73.9765 6.26751 74.1571 6.51762L74.1604 6.52211L74.1637 6.52652C74.5638 7.05407 74.8919 7.6402 75.088 8.21525C75.2944 8.89172 75.4259 9.54609 75.4293 10.1875C75.4329 10.8625 75.3684 11.5013 75.1207 12.1302C74.851 12.8151 74.5898 13.34 74.2028 13.8617ZM77.0954 15.1145L77.1032 15.1034L77.1104 15.0919C77.9971 13.6713 78.5085 11.957 78.499 10.1711C78.4895 8.38571 77.9601 6.67739 77.0587 5.26647C76.8634 4.95671 76.9511 4.59046 77.2804 4.35263C77.5015 4.1929 77.9166 4.24945 78.1629 4.57954C79.1806 6.19417 79.7953 8.14601 79.8061 10.1642C79.8172 12.2513 79.2238 14.1397 78.2224 15.7662C77.9908 16.085 77.6361 16.1743 77.3303 15.9936C76.9988 15.7507 76.9382 15.337 77.0954 15.1145ZM82.2861 2.45725L82.2948 2.4745L82.3049 2.49099C83.6839 4.7392 84.4502 7.33244 84.4652 10.1394C84.4801 12.945 83.7421 15.5452 82.3884 17.8072C82.1808 18.1409 81.8304 18.235 81.4752 18.0697C81.1519 17.859 81.065 17.5098 81.2339 17.1571C82.3852 15.1125 83.1011 12.703 83.0875 10.1467C83.074 7.60178 82.4085 5.1962 81.1569 3.15138C80.9875 2.80223 81.0714 2.4545 81.3909 2.24139C81.7763 2.05726 82.1518 2.19222 82.2861 2.45725ZM86.3691 0.317678L86.3751 0.329463L86.3817 0.340898C88.0528 3.22943 89.0346 6.53186 89.0536 10.1149C89.0727 13.6943 88.1281 17.0039 86.491 19.9079C86.2831 20.2378 85.9343 20.3302 85.5808 20.1656C85.2585 19.9556 85.1712 19.608 85.3379 19.2564C86.915 16.5648 87.7643 13.4463 87.7466 10.1219C87.7288 6.78888 86.7717 3.68252 85.2427 1.01742C85.0511 0.628371 85.1861 0.247336 85.4535 0.111846C85.846 -0.087029 86.2325 0.047971 86.3691 0.317678Z" fill="white"/>
</svg>
